<svg xmlns="http://www.w3.org/2000/svg" viewBox="0 0 200 200" width="200" height="200">
  <!-- Main red circle -->
  <circle cx="100" cy="85" r="70" fill="#E84B30"/>
  
  <!-- Bird silhouette -->
  <g fill="#1a1a1a">
    <!-- Bird body -->
    <ellipse cx="95" cy="90" rx="35" ry="28" transform="rotate(-15 95 90)"/>
    <!-- Bird head -->
    <circle cx="65" cy="70" r="22"/>
    <!-- Long beak -->
    <polygon points="45,68 5,58 45,72"/>
    <!-- Tail feathers -->
    <polygon points="130,75 175,45 170,55 178,62 135,85"/>
  </g>
  
  <!-- White wing accent lines -->
  <g stroke="#ffffff" stroke-width="2.5" stroke-linecap="round" fill="none">
    <line x1="85" y1="82" x2="115" y2="72"/>
    <line x1="88" y1="90" x2="120" y2="82"/>
    <line x1="90" y1="98" x2="118" y2="92"/>
  </g>
  
  <!-- Admin gear badge -->
  <g transform="translate(145, 140)">
    <!-- Gear outer -->
    <path d="M0,-25 L5,-23 L7,-28 L13,-28 L15,-23 L20,-25 L23,-20 L18,-15 L21,-10 L26,-8 L26,-2 L21,0 L23,5 L18,10 L20,15 L15,18 L13,13 L7,13 L5,18 L0,15 L-5,18 L-7,13 L-13,13 L-15,18 L-20,15 L-18,10 L-23,5 L-21,0 L-26,-2 L-26,-8 L-21,-10 L-18,-15 L-23,-20 L-20,-25 L-15,-23 L-13,-28 L-7,-28 L-5,-23 Z" 
          fill="#5a5a5a" stroke="#1a1a1a" stroke-width="1.5"/>
    <!-- Gear inner circle -->
    <circle cx="0" cy="-5" r="10" fill="#1a1a1a"/>
    <!-- Gear center -->
    <circle cx="0" cy="-5" r="4" fill="#5a5a5a"/>
  </g>
</svg>
