<svg xmlns="http://www.w3.org/2000/svg" viewBox="0 0 200 200" width="200" height="200">
  <!-- Main red circle -->
  <circle cx="100" cy="85" r="70" fill="#E84B30"/>
  
  <!-- Bird silhouette -->
  <g fill="#1a1a1a">
    <!-- Bird body -->
    <ellipse cx="95" cy="90" rx="35" ry="28" transform="rotate(-15 95 90)"/>
    <!-- Bird head -->
    <circle cx="65" cy="70" r="22"/>
    <!-- Long beak -->
    <polygon points="45,68 5,58 45,72"/>
    <!-- Tail feathers -->
    <polygon points="130,75 175,45 170,55 178,62 135,85"/>
  </g>
  
  <!-- White wing accent lines -->
  <g stroke="#ffffff" stroke-width="2.5" stroke-linecap="round" fill="none">
    <line x1="85" y1="82" x2="115" y2="72"/>
    <line x1="88" y1="90" x2="120" y2="82"/>
    <line x1="90" y1="98" x2="118" y2="92"/>
  </g>
  
  <!-- Interface admin badge - browser window with pencil -->
  <g transform="translate(145, 140)">
    <!-- Circle background -->
    <circle cx="0" cy="-5" r="24" fill="#5a5a5a" stroke="#1a1a1a" stroke-width="2"/>
    
    <!-- Browser window -->
    <rect x="-16" y="-18" width="26" height="22" rx="2" fill="#ffffff" stroke="#1a1a1a" stroke-width="1.5"/>
    <!-- Browser top bar -->
    <line x1="-16" y1="-12" x2="10" y2="-12" stroke="#1a1a1a" stroke-width="1.5"/>
    <!-- Browser dots -->
    <circle cx="-12" cy="-15" r="1.5" fill="#E84B30"/>
    <circle cx="-7" cy="-15" r="1.5" fill="#FFD700"/>
    <circle cx="-2" cy="-15" r="1.5" fill="#4CAF50"/>
    
    <!-- CSS text inside window -->
    <text x="-3" y="0" font-family="Arial, sans-serif" font-size="10" font-weight="bold" fill="#1a1a1a" text-anchor="middle">CSS</text>
    
    <!-- Pencil (overlapping bottom right) -->
    <g transform="translate(8, 2) rotate(-45)">
      <rect x="-3" y="-12" width="6" height="18" fill="#FFD700" stroke="#1a1a1a" stroke-width="1"/>
      <!-- Pencil tip -->
      <polygon points="-3,6 3,6 0,12" fill="#1a1a1a"/>
      <!-- Pencil eraser -->
      <rect x="-3" y="-14" width="6" height="4" fill="#E84B30" stroke="#1a1a1a" stroke-width="1"/>
    </g>
  </g>
</svg>
